<svg xmlns="http://www.w3.org/2000/svg" width="920" height="760" viewBox="0 0 920 760" font-kerning="normal">
<!-- Written by `flint gui-preview`. Every rectangle and colour here is what the Windows window paints; the glyphs are whatever your viewer substitutes for Segoe UI. -->
<rect x="0" y="0" width="920" height="760" fill="#f2f3f6"/>
<rect x="0" y="0" width="920" height="64" fill="#1a1818"/>
<rect x="0" y="61" width="920" height="3" fill="#e0551b"/>
<text x="22" y="23" font-family="Segoe UI,Selawik,Inter,DejaVu Sans,Helvetica,Arial,sans-serif" font-size="20" font-weight="600" fill="#f2efec" text-anchor="start" dominant-baseline="central">Flint</text>
<text x="22" y="45" font-family="Segoe UI,Selawik,Inter,DejaVu Sans,Helvetica,Arial,sans-serif" font-size="12" fill="#8e8884" text-anchor="start" dominant-baseline="central">Player · E:\ and F:\</text>
<text x="266" y="32" font-family="Segoe UI,Selawik,Inter,DejaVu Sans,Helvetica,Arial,sans-serif" font-size="14" font-weight="600" fill="#cfcbc7" text-anchor="middle" dominant-baseline="central">Sync</text>
<text x="309" y="32" font-family="Segoe UI,Selawik,Inter,DejaVu Sans,Helvetica,Arial,sans-serif" font-size="14" font-weight="600" fill="#cfcbc7" text-anchor="start" dominant-baseline="central">On the player</text>
<text x="409" y="32" font-family="Segoe UI,Selawik,Inter,DejaVu Sans,Helvetica,Arial,sans-serif" font-size="12" fill="#8e8884" text-anchor="start" dominant-baseline="central">8</text>
<text x="471" y="32" font-family="Segoe UI,Selawik,Inter,DejaVu Sans,Helvetica,Arial,sans-serif" font-size="14" font-weight="600" fill="#cfcbc7" text-anchor="middle" dominant-baseline="central">Check</text>
<text x="544" y="32" font-family="Segoe UI,Selawik,Inter,DejaVu Sans,Helvetica,Arial,sans-serif" font-size="14" font-weight="600" fill="#cfcbc7" text-anchor="middle" dominant-baseline="central">SensMe</text>
<text x="594" y="32" font-family="Segoe UI,Selawik,Inter,DejaVu Sans,Helvetica,Arial,sans-serif" font-size="14" font-weight="600" fill="#cfcbc7" text-anchor="start" dominant-baseline="central">Likes &amp; plays</text>
<text x="694" y="32" font-family="Segoe UI,Selawik,Inter,DejaVu Sans,Helvetica,Arial,sans-serif" font-size="12" fill="#8e8884" text-anchor="start" dominant-baseline="central">7</text>
<rect x="718" y="15" width="98" height="34" rx="5" fill="#f2f3f6"/>
<text x="732" y="32" font-family="Segoe UI,Selawik,Inter,DejaVu Sans,Helvetica,Arial,sans-serif" font-size="14" font-weight="600" fill="#191a1e" text-anchor="start" dominant-baseline="central">Palettes</text>
<text x="796" y="32" font-family="Segoe UI,Selawik,Inter,DejaVu Sans,Helvetica,Arial,sans-serif" font-size="12" fill="#5f6069" text-anchor="start" dominant-baseline="central">5</text>
<text x="859" y="32" font-family="Segoe UI,Selawik,Inter,DejaVu Sans,Helvetica,Arial,sans-serif" font-size="14" font-weight="600" fill="#cfcbc7" text-anchor="middle" dominant-baseline="central">Settings</text>
<text x="22" y="97" font-family="Segoe UI,Selawik,Inter,DejaVu Sans,Helvetica,Arial,sans-serif" font-size="14" font-weight="600" fill="#3a3b44" text-anchor="start" dominant-baseline="central">Palettes</text>
<text x="22" y="119" font-family="Segoe UI,Selawik,Inter,DejaVu Sans,Helvetica,Arial,sans-serif" font-size="12" fill="#5f6069" text-anchor="start" dominant-baseline="central">Colour schemes for Cinder. Each .palette file is checked with the player&apos;s own readability rules before it is sent.</text>
<text x="22" y="139" font-family="Segoe UI,Selawik,Inter,DejaVu Sans,Helvetica,Arial,sans-serif" font-size="12" fill="#5f6069" text-anchor="start" dominant-baseline="central">Cinder reads them from cinder_palettes on the player&apos;s internal memory, and refuses any it could not draw legibly.</text>
<text x="22" y="173" font-family="Segoe UI,Selawik,Inter,DejaVu Sans,Helvetica,Arial,sans-serif" font-size="12" fill="#5f6069" text-anchor="start" dominant-baseline="central">On this PC</text>
<text x="202" y="172" font-family="Segoe UI,Selawik,Inter,DejaVu Sans,Helvetica,Arial,sans-serif" font-size="15" fill="#191a1e" text-anchor="start" dominant-baseline="central">D:\Walkman\Palettes</text>
<rect x="802.5" y="158.5" width="95" height="29" rx="5" fill="#ececf1" stroke="#d3d4dc" stroke-width="1"/>
<text x="850" y="173" font-family="Segoe UI,Selawik,Inter,DejaVu Sans,Helvetica,Arial,sans-serif" font-size="14" font-weight="600" fill="#191a1e" text-anchor="middle" dominant-baseline="central">Choose…</text>
<rect x="22.5" y="200.5" width="119" height="29" rx="5" fill="none" stroke="#d3d4dc" stroke-width="1"/>
<text x="82" y="215" font-family="Segoe UI,Selawik,Inter,DejaVu Sans,Helvetica,Arial,sans-serif" font-size="14" fill="#191a1e" text-anchor="middle" dominant-baseline="central">Check</text>
<rect x="156.5" y="200.5" width="195" height="29" rx="5" fill="none" stroke="#d3d4dc" stroke-width="1"/>
<text x="254" y="215" font-family="Segoe UI,Selawik,Inter,DejaVu Sans,Helvetica,Arial,sans-serif" font-size="14" fill="#191a1e" text-anchor="middle" dominant-baseline="central">Send 2 to the player</text>
<rect x="786.5" y="200.5" width="111" height="29" rx="5" fill="none" stroke="#d3d4dc" stroke-width="1"/>
<text x="842" y="215" font-family="Segoe UI,Selawik,Inter,DejaVu Sans,Helvetica,Arial,sans-serif" font-size="14" fill="#191a1e" text-anchor="middle" dominant-baseline="central">New palette</text>
<rect x="634.5" y="200.5" width="141" height="29" rx="5" fill="none" stroke="#f0f0f3" stroke-width="1"/>
<text x="705" y="215" font-family="Segoe UI,Selawik,Inter,DejaVu Sans,Helvetica,Arial,sans-serif" font-size="14" fill="#afb0ba" text-anchor="middle" dominant-baseline="central">Shared palettes</text>
<text x="22" y="279" font-family="Segoe UI,Selawik,Inter,DejaVu Sans,Helvetica,Arial,sans-serif" font-size="14" font-weight="600" fill="#3a3b44" text-anchor="start" dominant-baseline="central">Shared palettes</text>
<rect x="818.5" y="264.5" width="79" height="29" rx="5" fill="none" stroke="#d3d4dc" stroke-width="1"/>
<text x="858" y="279" font-family="Segoe UI,Selawik,Inter,DejaVu Sans,Helvetica,Arial,sans-serif" font-size="14" fill="#191a1e" text-anchor="middle" dominant-baseline="central">Close</text>
<rect x="664.5" y="264.5" width="143" height="29" rx="5" fill="none" stroke="#d3d4dc" stroke-width="1"/>
<text x="736" y="279" font-family="Segoe UI,Selawik,Inter,DejaVu Sans,Helvetica,Arial,sans-serif" font-size="14" fill="#191a1e" text-anchor="middle" dominant-baseline="central">Open on GitHub</text>
<rect x="564.5" y="264.5" width="89" height="29" rx="5" fill="none" stroke="#d3d4dc" stroke-width="1"/>
<text x="609" y="279" font-family="Segoe UI,Selawik,Inter,DejaVu Sans,Helvetica,Arial,sans-serif" font-size="14" fill="#191a1e" text-anchor="middle" dominant-baseline="central">Get all</text>
<rect x="458.5" y="264.5" width="95" height="29" rx="5" fill="none" stroke="#d3d4dc" stroke-width="1"/>
<text x="506" y="279" font-family="Segoe UI,Selawik,Inter,DejaVu Sans,Helvetica,Arial,sans-serif" font-size="14" fill="#191a1e" text-anchor="middle" dominant-baseline="central">Refresh</text>
<rect x="22.5" y="306.5" width="299" height="29" rx="5" fill="#ffffff" stroke="#d3d4dc" stroke-width="1"/>
<text x="32" y="321" font-family="Segoe UI,Selawik,Inter,DejaVu Sans,Helvetica,Arial,sans-serif" font-size="14" fill="#9a9ca6" text-anchor="start" dominant-baseline="central">Search by name, light, dark or accent</text>
<text x="336" y="321" font-family="Segoe UI,Selawik,Inter,DejaVu Sans,Helvetica,Arial,sans-serif" font-size="12" fill="#5f6069" text-anchor="start" dominant-baseline="central">5 of 5. Install puts it in your folder and on the player.</text>
<rect x="22.5" y="350.5" width="875" height="29" rx="8" fill="#ffffff" stroke="#e3e4ea" stroke-width="1"/>
<text x="34" y="365" font-family="Segoe UI,Selawik,Inter,DejaVu Sans,Helvetica,Arial,sans-serif" font-size="12" fill="#5f6069" text-anchor="start" dominant-baseline="central">Palette</text>
<text x="224" y="365" font-family="Segoe UI,Selawik,Inter,DejaVu Sans,Helvetica,Arial,sans-serif" font-size="12" fill="#5f6069" text-anchor="start" dominant-baseline="central">By day</text>
<text x="342" y="365" font-family="Segoe UI,Selawik,Inter,DejaVu Sans,Helvetica,Arial,sans-serif" font-size="12" fill="#5f6069" text-anchor="start" dominant-baseline="central">By night</text>
<text x="460" y="365" font-family="Segoe UI,Selawik,Inter,DejaVu Sans,Helvetica,Arial,sans-serif" font-size="12" fill="#5f6069" text-anchor="start" dominant-baseline="central">Kind</text>
<rect x="22" y="384" width="876" height="1" fill="#dfdfe6"/>
<text x="34" y="404" font-family="Segoe UI,Selawik,Inter,DejaVu Sans,Helvetica,Arial,sans-serif" font-size="14" font-weight="600" fill="#191a1e" text-anchor="start" dominant-baseline="central">Dusk</text>
<rect x="224" y="395" width="20" height="16" fill="#13101a"/>
<rect x="244" y="395" width="20" height="16" fill="#2a2436"/>
<rect x="264" y="395" width="20" height="16" fill="#9a90aa"/>
<rect x="284" y="395" width="20" height="16" fill="#ece6f4"/>
<rect x="304" y="395" width="20" height="16" fill="#f4651f"/>
<rect x="224.5" y="395.5" width="99" height="15" fill="none" stroke="#d3d4dc" stroke-width="1"/>
<rect x="342" y="395" width="20" height="16" fill="#000000"/>
<rect x="362" y="395" width="20" height="16" fill="#0e0c12"/>
<rect x="382" y="395" width="20" height="16" fill="#342f3b"/>
<rect x="402" y="395" width="20" height="16" fill="#514b59"/>
<rect x="422" y="395" width="20" height="16" fill="#491e08"/>
<rect x="342.5" y="395.5" width="99" height="15" fill="none" stroke="#d3d4dc" stroke-width="1"/>
<text x="460" y="404" font-family="Segoe UI,Selawik,Inter,DejaVu Sans,Helvetica,Arial,sans-serif" font-size="14" fill="#5f6069" text-anchor="start" dominant-baseline="central">Dark · any accent</text>
<rect x="778.5" y="389.5" width="111" height="27" rx="5" fill="none" stroke="#d3d4dc" stroke-width="1"/>
<text x="834" y="403" font-family="Segoe UI,Selawik,Inter,DejaVu Sans,Helvetica,Arial,sans-serif" font-size="14" fill="#191a1e" text-anchor="middle" dominant-baseline="central">Install</text>
<rect x="22" y="420" width="876" height="1" fill="#dfdfe6"/>
<text x="34" y="440" font-family="Segoe UI,Selawik,Inter,DejaVu Sans,Helvetica,Arial,sans-serif" font-size="14" font-weight="600" fill="#191a1e" text-anchor="start" dominant-baseline="central">Moss</text>
<rect x="224" y="431" width="20" height="16" fill="#0f130f"/>
<rect x="244" y="431" width="20" height="16" fill="#243024"/>
<rect x="264" y="431" width="20" height="16" fill="#8ea08e"/>
<rect x="284" y="431" width="20" height="16" fill="#e4efe4"/>
<rect x="304" y="431" width="20" height="16" fill="#f4651f"/>
<rect x="224.5" y="431.5" width="99" height="15" fill="none" stroke="#d3d4dc" stroke-width="1"/>
<rect x="342" y="431" width="20" height="16" fill="#000000"/>
<rect x="362" y="431" width="20" height="16" fill="#0b0f0b"/>
<rect x="382" y="431" width="20" height="16" fill="#2f372f"/>
<rect x="402" y="431" width="20" height="16" fill="#4b544b"/>
<rect x="422" y="431" width="20" height="16" fill="#491e08"/>
<rect x="342.5" y="431.5" width="99" height="15" fill="none" stroke="#d3d4dc" stroke-width="1"/>
<text x="460" y="440" font-family="Segoe UI,Selawik,Inter,DejaVu Sans,Helvetica,Arial,sans-serif" font-size="14" fill="#5f6069" text-anchor="start" dominant-baseline="central">Dark · any accent</text>
<text x="786" y="440" font-family="Segoe UI,Selawik,Inter,DejaVu Sans,Helvetica,Arial,sans-serif" font-size="14" fill="#b36b00" text-anchor="start" dominant-baseline="central">Yours differs</text>
<rect x="22" y="456" width="876" height="1" fill="#dfdfe6"/>
<text x="34" y="476" font-family="Segoe UI,Selawik,Inter,DejaVu Sans,Helvetica,Arial,sans-serif" font-size="14" font-weight="600" fill="#191a1e" text-anchor="start" dominant-baseline="central">Paper</text>
<rect x="224" y="467" width="20" height="16" fill="#f4f1ea"/>
<rect x="244" y="467" width="20" height="16" fill="#d6d0c4"/>
<rect x="264" y="467" width="20" height="16" fill="#5f5a52"/>
<rect x="284" y="467" width="20" height="16" fill="#1c1a17"/>
<rect x="304" y="467" width="20" height="16" fill="#c4471a"/>
<rect x="224.5" y="467.5" width="99" height="15" fill="none" stroke="#d3d4dc" stroke-width="1"/>
<rect x="342" y="467" width="20" height="16" fill="#000000"/>
<rect x="362" y="467" width="20" height="16" fill="#0c0a08"/>
<rect x="382" y="467" width="20" height="16" fill="#322d27"/>
<rect x="402" y="467" width="20" height="16" fill="#4d463d"/>
<rect x="422" y="467" width="20" height="16" fill="#491e08"/>
<rect x="342.5" y="467.5" width="99" height="15" fill="none" stroke="#d3d4dc" stroke-width="1"/>
<text x="460" y="476" font-family="Segoe UI,Selawik,Inter,DejaVu Sans,Helvetica,Arial,sans-serif" font-size="14" fill="#5f6069" text-anchor="start" dominant-baseline="central">Light · own accent</text>
<rect x="778.5" y="461.5" width="111" height="27" rx="5" fill="none" stroke="#d3d4dc" stroke-width="1"/>
<text x="834" y="475" font-family="Segoe UI,Selawik,Inter,DejaVu Sans,Helvetica,Arial,sans-serif" font-size="14" fill="#191a1e" text-anchor="middle" dominant-baseline="central">Install</text>
<rect x="22" y="492" width="876" height="1" fill="#dfdfe6"/>
<text x="34" y="512" font-family="Segoe UI,Selawik,Inter,DejaVu Sans,Helvetica,Arial,sans-serif" font-size="14" font-weight="600" fill="#191a1e" text-anchor="start" dominant-baseline="central">Slate</text>
<rect x="224" y="503" width="20" height="16" fill="#0e1116"/>
<rect x="244" y="503" width="20" height="16" fill="#232a35"/>
<rect x="264" y="503" width="20" height="16" fill="#8d97a5"/>
<rect x="284" y="503" width="20" height="16" fill="#e6ebf2"/>
<rect x="304" y="503" width="20" height="16" fill="#f4651f"/>
<rect x="224.5" y="503.5" width="99" height="15" fill="none" stroke="#d3d4dc" stroke-width="1"/>
<rect x="342" y="503" width="20" height="16" fill="#000000"/>
<rect x="362" y="503" width="20" height="16" fill="#0b0e12"/>
<rect x="382" y="503" width="20" height="16" fill="#2f343b"/>
<rect x="402" y="503" width="20" height="16" fill="#4b5058"/>
<rect x="422" y="503" width="20" height="16" fill="#491e08"/>
<rect x="342.5" y="503.5" width="99" height="15" fill="none" stroke="#d3d4dc" stroke-width="1"/>
<text x="460" y="512" font-family="Segoe UI,Selawik,Inter,DejaVu Sans,Helvetica,Arial,sans-serif" font-size="14" fill="#5f6069" text-anchor="start" dominant-baseline="central">Dark · any accent</text>
<text x="786" y="512" font-family="Segoe UI,Selawik,Inter,DejaVu Sans,Helvetica,Arial,sans-serif" font-size="14" fill="#2e7d4f" text-anchor="start" dominant-baseline="central">Installed</text>
<rect x="22" y="528" width="876" height="1" fill="#dfdfe6"/>
<text x="34" y="548" font-family="Segoe UI,Selawik,Inter,DejaVu Sans,Helvetica,Arial,sans-serif" font-size="14" font-weight="600" fill="#191a1e" text-anchor="start" dominant-baseline="central">Sony</text>
<rect x="224" y="539" width="20" height="16" fill="#000000"/>
<rect x="244" y="539" width="20" height="16" fill="#333333"/>
<rect x="264" y="539" width="20" height="16" fill="#999999"/>
<rect x="284" y="539" width="20" height="16" fill="#ffffff"/>
<rect x="304" y="539" width="20" height="16" fill="#c0a565"/>
<rect x="224.5" y="539.5" width="99" height="15" fill="none" stroke="#d3d4dc" stroke-width="1"/>
<rect x="342" y="539" width="20" height="16" fill="#000000"/>
<rect x="362" y="539" width="20" height="16" fill="#101010"/>
<rect x="382" y="539" width="20" height="16" fill="#313131"/>
<rect x="402" y="539" width="20" height="16" fill="#4b4b4b"/>
<rect x="422" y="539" width="20" height="16" fill="#3a321e"/>
<rect x="342.5" y="539.5" width="99" height="15" fill="none" stroke="#d3d4dc" stroke-width="1"/>
<text x="460" y="548" font-family="Segoe UI,Selawik,Inter,DejaVu Sans,Helvetica,Arial,sans-serif" font-size="14" fill="#5f6069" text-anchor="start" dominant-baseline="central">Dark · own accent</text>
<rect x="778.5" y="533.5" width="111" height="27" rx="5" fill="none" stroke="#d3d4dc" stroke-width="1"/>
<text x="834" y="547" font-family="Segoe UI,Selawik,Inter,DejaVu Sans,Helvetica,Arial,sans-serif" font-size="14" fill="#191a1e" text-anchor="middle" dominant-baseline="central">Install</text>
<text x="22" y="728" font-family="Segoe UI,Selawik,Inter,DejaVu Sans,Helvetica,Arial,sans-serif" font-size="14" fill="#5f6069" text-anchor="start" dominant-baseline="central">5 shared palettes</text>
</svg>
